<svg xmlns="http://www.w3.org/2000/svg" width="48" height="48">
  <defs>
    <linearGradient id="a" x1="12.811%" x2="94.4%" y1="43.597%" y2="57.648%">
      <stop offset="0%" stop-color="#FF9E16" stop-opacity="0"/>
      <stop offset="4%" stop-color="#FD9516" stop-opacity=".07"/>
      <stop offset="17%" stop-color="#F67717" stop-opacity=".31"/>
      <stop offset="30%" stop-color="#F05E18" stop-opacity=".52"/>
      <stop offset="43%" stop-color="#EB4819" stop-opacity=".7"/>
      <stop offset="57%" stop-color="#E73819" stop-opacity=".83"/>
      <stop offset="69%" stop-color="#E42C1A" stop-opacity=".92"/>
      <stop offset="82%" stop-color="#E3251A" stop-opacity=".98"/>
      <stop offset="93%" stop-color="#E2231A"/>
    </linearGradient>
  </defs>
  <g fill="none">
    <path fill="#FF9E16" d="M0 39.333v-8.9c7.516-.009 13.606-5.996 13.614-13.384V4.667h9.053v12.382c0 12.286-10.168 22.284-22.667 22.284z"/>
    <path fill="url(#a)" d="M0 39.333v-8.9c7.516-.009 13.606-5.996 13.614-13.384V4.667h9.053v12.382c0 12.286-10.168 22.284-22.667 22.284z"/>
    <path fill="#FF5000" d="M47.657 1.78c.225.24.348.558.343.888A1.328 1.328 0 0 1 46.667 4a1.277 1.277 0 0 1-.942-.391 1.309 1.309 0 0 1-.391-.965c0-.372.162-.726.444-.97.24-.225.56-.347.889-.34.38-.006.742.158.99.445zm-1.763.191a1.044 1.044 0 0 0-.272.71c.008.292.133.568.348.765a1.046 1.046 0 0 0 1.742-.778 1.014 1.014 0 0 0-.356-.775 1.001 1.001 0 0 0-.71-.268.973.973 0 0 0-.75.346h-.002zm1.198.432c-.162-.178-.24-.217-.391-.217a.44.44 0 0 0-.331.139.469.469 0 0 0-.132.339.46.46 0 0 0 .136.341.44.44 0 0 0 .327.139.388.388 0 0 0 .177-.038c.078-.05.15-.11.214-.177l.245.218a1.493 1.493 0 0 1-.05.048.797.797 0 0 1-.583.25.761.761 0 0 1-.592-.26.753.753 0 0 1-.202-.533.788.788 0 0 1 .794-.79c.24.01.463.122.615.306l-.227.235z"/>
    <path fill="#98252B" d="M39.479 47.993a4.518 4.518 0 0 1-3.977-2.36L13.88 6.653A4.494 4.494 0 0 1 14 2.15 4.525 4.525 0 0 1 17.977.002a4.523 4.523 0 0 1 3.853 2.357l21.622 38.987a4.492 4.492 0 0 1-.086 4.45A4.523 4.523 0 0 1 39.484 48l-.005-.007z"/>
    <path fill="#FF5000" d="M39.667 48c-2.394 0-4.334-2.016-4.334-4.503V4.503c0-2.487 1.94-4.503 4.334-4.503C42.06 0 44 2.016 44 4.503v38.994C44 45.984 42.06 48 39.667 48z"/>
  </g>
</svg>
